# xmcd
#
# Track frame offsets:
# 212
# 15107
# 39997
# 57290
# 69747
# 89357
# 102775
# 115305
# 130472
# 144947
# 157740
# 179662
# 193195
#
# Disc length: 2833 seconds
#
#
# Revision: 2
# Processed by: cddbd v1.5.1PL2 Copyright (c) Steve Scherf et al.
# Submitted via: FreeRIP 2.944 
#
DISCID=aa0b0f0d
DTITLE=Smokin' Joe Kubek  Band featuring  B'nois King - Chain Smokin' Texas Style
DYEAR=1992
DGENRE=Bluesrock
TTITLE0=Way Down There
TTITLE1=Just For A Little While
TTITLE2=Love To Live The Life
TTITLE3=That's What I'll Do For You
TTITLE4=Little Girl
TTITLE5=Good Understanding
TTITLE6=Overdues
TTITLE7=Come By Here
TTITLE8=I'm On My Way
TTITLE9=Chain Smokin'
TTITLE10=Walk With You
TTITLE11=Soft Touch
TTITLE12=Can't Quit My Baby
EXTD=
EXTT0=
EXTT1=
EXTT2=
EXTT3=
EXTT4=
EXTT5=
EXTT6=
EXTT7=
EXTT8=
EXTT9=
EXTT10=
EXTT11=
EXTT12=
PLAYORDER=
